<?xml version="1.0" encoding="utf-8"?>
<!-- Generator: Adobe Illustrator 16.0.4, SVG Export Plug-In . SVG Version: 6.00 Build 0)  -->
<!DOCTYPE svg PUBLIC "-//W3C//DTD SVG 1.1//EN" "http://www.w3.org/Graphics/SVG/1.1/DTD/svg11.dtd">
<svg version="1.1" id="Livello_1" xmlns="http://www.w3.org/2000/svg" xmlns:xlink="http://www.w3.org/1999/xlink" x="0px" y="0px"
	 width="154.024px" height="100px" viewBox="-161.111 0 154.024 100" enable-background="new -161.111 0 154.024 100"
	 xml:space="preserve">
<path fill="#1D1D1B" d="M96.314,3.684c2.99,2.989,2.99,7.837,0,10.826L14.511,96.314c-2.989,2.99-7.837,2.99-10.826,0l0,0
	c-2.989-2.988-2.989-7.836,0-10.825L85.488,3.685C88.479,0.695,93.326,0.695,96.314,3.684L96.314,3.684z"/>
<path fill="#1D1D1B" d="M3.685,3.684c-2.989,2.989-2.989,7.837,0,10.826L85.49,96.314c2.988,2.99,7.837,2.99,10.826,0l0,0
	c2.988-2.988,2.988-7.836,0-10.825L14.511,3.685C11.521,0.695,6.674,0.695,3.685,3.684L3.685,3.684z"/>
<line fill="none" stroke="#1D1D1B" stroke-width="13.3791" stroke-linecap="round" stroke-linejoin="round" x1="-18.367" y1="50.002" x2="-138.267" y2="50.002"/>
<polyline fill="none" stroke="#1D1D1B" stroke-width="13.3791" stroke-linecap="round" stroke-linejoin="round" points="
	-98.09,91.874 -149.83,50.002 -98.096,8.126 "/>
</svg>
