<?xml version="1.0" encoding="utf-8"?>
<!-- Generator: Adobe Illustrator 16.0.4, SVG Export Plug-In . SVG Version: 6.00 Build 0)  -->
<!DOCTYPE svg PUBLIC "-//W3C//DTD SVG 1.1//EN" "http://www.w3.org/Graphics/SVG/1.1/DTD/svg11.dtd">
<svg version="1.1" id="Livello_1" xmlns="http://www.w3.org/2000/svg" xmlns:xlink="http://www.w3.org/1999/xlink" x="0px" y="0px"
	 width="98.449px" height="24.145px" viewBox="0 0 98.449 24.145" enable-background="new 0 0 98.449 24.145" xml:space="preserve">
<g>
	<path fill="#FFFFFF" d="M5.544,0.165l6.889,18.305l6.873-18.305h5.364v23.882h-4.134v-7.873l0.41-10.531l-7.053,18.404h-2.969
		L3.887,5.66l0.41,10.514v7.873H0.164V0.165H5.544z"/>
	<path fill="#FFFFFF" d="M43.237,18.487h-9.251l-1.936,5.561h-4.313l9.021-23.882h3.724l9.038,23.882h-4.33L43.237,18.487z
		 M35.15,15.141h6.922l-3.461-9.907L35.15,15.141z"/>
	<path fill="#FFFFFF" d="M56.604,24.047h-4.132V0.165h4.132V24.047z"/>
	<path fill="#FFFFFF" d="M65.02,6.3l0.114,2.05c1.312-1.585,3.035-2.378,5.167-2.378c3.696,0,5.577,2.116,5.643,6.348v11.728h-3.986
		V12.549c0-1.126-0.243-1.96-0.729-2.501s-1.282-0.812-2.387-0.812c-1.607,0-2.805,0.728-3.592,2.182v12.63h-3.986V6.3H65.02z"/>
	<path fill="#FFFFFF" d="M80.388,24.047V0.165h7.053c2.11,0,3.983,0.47,5.618,1.411s2.9,2.274,3.797,4.002
		c0.896,1.728,1.345,3.707,1.345,5.938v1.198c0,2.264-0.45,4.254-1.353,5.971s-2.188,3.04-3.854,3.969
		c-1.668,0.93-3.579,1.395-5.733,1.395H80.388z M84.537,3.511v17.19h2.707c2.176,0,3.846-0.68,5.011-2.039
		c1.164-1.358,1.758-3.31,1.779-5.852v-1.327c0-2.586-0.563-4.562-1.689-5.926s-2.761-2.047-4.904-2.047H84.537z"/>
</g>
</svg>
